<svg width="700" height="500" viewBox="0 0 700 500" xmlns="http://www.w3.org/2000/svg">
<!-- <mask id="path-1-inside-1" >
<rect width="700" height="500" rx="20"/>
</mask> -->
<rect width="700" height="500" rx="20" stroke-width="80" mask="url(#path-1-inside-1)"/>
<path d="M442.244 312.344C442.441 285.524 431.839 264.313 410.692 249.334C394.359 237.801 374.538 231.785 355.367 226.004C315.431 213.897 303.846 207.52 303.846 188.422C303.846 167.149 331.492 159.58 355.159 159.58C372.395 159.58 392.225 164.939 404.54 172.881L428.955 135.069C412.86 124.635 390.832 117.518 369.08 115.309V80H324.042V117.785C284.007 126.592 258.787 152.758 258.787 188.422C258.787 213.399 269.166 233.207 289.577 247.178C305.101 257.844 324.034 263.571 342.323 269.116C381.495 280.956 397.402 288.171 397.221 312.065L397.22 312.241C397.22 332.296 370.643 339.425 347.874 339.425C326.366 339.425 302.977 329.999 289.719 315.984L257 346.933C273.79 364.691 298.184 377.246 324.041 382.167V419.005H369.08V382.96C413.567 376.592 442.2 349.809 442.244 312.344Z"/>
</svg>
