<svg xmlns="http://www.w3.org/2000/svg" height="511pt" version="1.1" viewBox="0 1 511 511.99903" width="511pt">
<g id="surface1">
<path d="M 301.902344 303.007812 L 301.472656 303.140625 C 317.742188 283.777344 332.21875 264.097656 344.792969 244.265625 L 357.625 251.996094 C 376.246094 263.207031 394.777344 267.144531 411.632812 267.144531 C 450.238281 267.144531 480.035156 246.484375 481.804688 245.230469 L 512.28125 223.636719 L 477.421875 210.222656 C 474.726562 209.1875 412.738281 185.910156 361.839844 215.140625 C 366.726562 206.019531 371.203125 196.878906 375.261719 187.738281 C 380.972656 183.175781 393.890625 171.417969 404.457031 151.277344 C 416.394531 128.519531 427.660156 89.984375 413.535156 35.617188 L 404.277344 0 L 379.410156 27.125 C 324.71875 86.785156 332.746094 146.484375 339.164062 170.402344 C 332.433594 185.699219 324.535156 200.683594 315.648438 215.285156 L 315.496094 206.003906 C 315.453125 203.414062 313.914062 142.113281 265.523438 103.660156 L 235.933594 80.148438 L 233.117188 117.835938 C 227.75 189.597656 283.148438 222.320312 285.507812 223.675781 L 303.554688 234.054688 C 288.878906 255.65625 272.1875 276.339844 254.195312 295.921875 C 248.71875 268.847656 230.957031 211.375 175.164062 166.730469 L 140.816406 139.246094 L 142.664062 183.199219 C 146.59375 276.582031 204.242188 317.308594 222.640625 327.976562 C 208.457031 341.460938 193.792969 354.277344 178.9375 366.363281 C 176.113281 355.175781 155.132812 282.214844 78.71875 237.378906 L 40.777344 215.117188 L 48.925781 258.347656 C 66.378906 350.949219 130.519531 382.296875 149.054688 389.527344 C 102.6875 423.777344 56.371094 450.464844 18.765625 467.289062 L 0.5 475.460938 L 16.84375 512 L 35.113281 503.828125 C 67.886719 489.164062 102.082031 470.113281 135.511719 448.132812 L 138.308594 455.832031 C 151.90625 493.285156 193.953125 501.855469 195.738281 502.203125 L 243.425781 511.464844 L 216.101562 471.300781 C 213.6875 467.75 191.886719 436.785156 162.414062 429.699219 C 176.878906 419.375 191.078125 408.554688 204.828125 397.367188 L 221.074219 415.589844 C 262.296875 461.84375 307.265625 476.378906 337.730469 480.429688 C 345.96875 481.527344 353.589844 481.945312 360.441406 481.945312 C 381.019531 481.945312 394.574219 478.164062 396.480469 477.597656 L 427.972656 468.277344 L 405.25 444.566406 C 402.625 441.824219 339.75 377.507812 235.101562 382.28125 L 222.148438 382.875 C 226.625 379.019531 231.050781 375.136719 235.398438 371.214844 C 251.824219 356.414062 267.167969 341.289062 281.382812 325.921875 L 295.097656 337.417969 C 324.542969 362.109375 358.972656 368.722656 387.414062 368.722656 C 418.917969 368.722656 443.074219 360.605469 444.941406 359.957031 L 490.855469 344.085938 L 447.082031 323.011719 C 443.703125 321.382812 363.648438 283.40625 301.902344 303.007812 Z M 301.902344 303.007812 " style=" stroke:none;fill-rule:nonzero;fill-opacity:1;" />
</g>
</svg>