<svg width="512" height="550" viewBox="0 0 512 550" fill="none" xmlns="http://www.w3.org/2000/svg">
<path d="M413.482 64C407.96 64 403.482 68.4772 403.482 74V482.332C403.482 487.855 399.005 492.332 393.482 492.332H118.518C112.995 492.332 108.518 487.855 108.518 482.332V74C108.518 68.4771 104.04 64 98.5175 64H66C60.4771 64 56 68.4772 56 74V531C56 536.523 60.4772 541 66 541H446C451.523 541 456 536.523 456 531V74C456 68.4772 451.523 64 446 64H413.482Z" fill="black"/>
<path d="M274.472 302.269L204.007 188L165.55 262.836H81V311.485H196.45L207.993 289.022L287.528 418L324.018 311.485H431V262.836H287.982L274.472 302.269Z" fill="black"/>
<path d="M336 74C336 68.4772 340.477 64 346 64H446C451.523 64 456 68.4772 456 74V102C456 107.523 451.523 112 446 112H346C340.477 112 336 107.523 336 102V74Z" fill="black"/>
<path d="M56 74C56 68.4772 60.4772 64 66 64H166C171.523 64 176 68.4772 176 74V102C176 107.523 171.523 112 166 112H66C60.4772 112 56 107.523 56 102V74Z" fill="black"/>
<path d="M186 109V29H326V109H186Z" stroke="black" stroke-width="40"/>
</svg>
