<svg width="812" height="512" viewBox="0 0 812 512" fill="none" xmlns="http://www.w3.org/2000/svg">
<path d="M792.522 118.285L566.433 3.72806L566.339 3.68106C556.272 -1.33094 544.31 -1.21894 534.337 3.98106L437.368 55.4451C436.58 55.7791 435.823 56.1841 435.098 56.6501L318.896 118.322C307.24 124.425 300 136.383 300 149.544V362.425C300 375.586 307.24 387.543 318.896 393.646L534.241 507.938L534.338 507.989C539.424 510.641 545.029 511.97 550.635 511.97C556.02 511.97 561.407 510.744 566.339 508.288L792.522 393.684C804.538 387.675 812 375.603 812 362.165V149.805C812 136.366 804.538 124.293 792.522 118.285ZM548.237 30.5541C549.706 29.8001 551.46 29.7851 552.942 30.5121L764.571 137.742L682.207 178.747L475.308 69.2601L548.237 30.5541ZM535.424 474.615L332.91 367.132L332.813 367.081C331.072 366.172 329.989 364.389 329.989 362.425V163.076L535.424 270.2V474.615ZM550.577 244.28L346.272 137.745L443.296 86.2521L649.171 195.195L550.577 244.28ZM782.009 362.163C782.01 364.17 780.894 365.972 779.098 366.866L565.414 475.137V270.393L663.8 221.411V272.766C663.8 281.047 670.514 287.761 678.795 287.761C687.076 287.761 693.79 281.047 693.79 272.766V206.48L782.009 162.56V362.163V362.163Z"/>
<rect y="111" width="250" height="50" rx="20"/>
<rect x="50" y="231" width="200" height="50" rx="20"/>
<rect x="100" y="351" width="150" height="50" rx="20"/>
</svg>
